<svg width="38" height="36" viewBox="0 0 38 36" fill="none" xmlns="http://www.w3.org/2000/svg">
<g clip-path="url(#clip0_3_1030)">
<path d="M1.57568 32.1372V3.85146C1.57568 3.16947 1.85507 2.51542 2.35237 2.03318C2.84968 1.55095 3.52417 1.28003 4.22747 1.28003H33.3971C34.1004 1.28003 34.7749 1.55095 35.2722 2.03318C35.7695 2.51542 36.0489 3.16947 36.0489 3.85146V32.1372C36.0489 32.8192 35.7695 33.4732 35.2722 33.9554C34.7749 34.4377 34.1004 34.7086 33.3971 34.7086H25.4418V22.52H27.3245C27.7535 22.52 28.165 22.3548 28.4683 22.0606C28.7717 21.7664 28.9421 21.3675 28.9421 20.9515V18.9715C28.9421 18.5554 28.7717 18.1565 28.4683 17.8623C28.165 17.5681 27.7535 17.4029 27.3245 17.4029H25.5478V14.9857C25.5478 12.8257 26.5555 12.8257 27.5632 12.8257H28.8626C29.076 12.8343 29.2887 12.7972 29.4858 12.7173C29.6828 12.6373 29.8593 12.5163 30.0028 12.3629C30.1569 12.2206 30.2789 12.0489 30.3611 11.8586C30.4432 11.6683 30.4838 11.4635 30.4801 11.2572V9.35432C30.4872 9.14492 30.4517 8.93623 30.3755 8.74017C30.2994 8.54411 30.1841 8.36453 30.0364 8.21169C29.8886 8.05885 29.7112 7.93574 29.5144 7.84942C29.3175 7.7631 29.105 7.71525 28.8891 7.7086H25.8395C24.9497 7.67616 24.0632 7.83141 23.2413 8.16363C22.4194 8.49585 21.6817 8.99712 21.0791 9.63281C20.4765 10.2685 20.0234 11.0235 19.751 11.8455C19.4787 12.6676 19.3937 13.5372 19.5018 14.3943V17.4029H17.8046C17.59 17.3995 17.3768 17.4375 17.1774 17.5148C16.9781 17.5921 16.7966 17.7071 16.6436 17.8531C16.4906 17.9991 16.3691 18.1732 16.2861 18.3652C16.2032 18.5572 16.1605 18.7633 16.1605 18.9715V20.9515C16.1605 21.1596 16.2032 21.3657 16.2861 21.5577C16.3691 21.7497 16.4906 21.9238 16.6436 22.0698C16.7966 22.2158 16.9781 22.3308 17.1774 22.4081C17.3768 22.4854 17.59 22.5234 17.8046 22.52H19.5018V34.7086H4.22747C3.52417 34.7086 2.84968 34.4377 2.35237 33.9554C1.85507 33.4732 1.57568 32.8192 1.57568 32.1372Z" stroke="white" stroke-width="2" stroke-linecap="round" stroke-linejoin="round"/>
</g>
<defs>
<clipPath id="clip0_3_1030">
<rect width="37.125" height="36" fill="white" transform="translate(0.25 -0.00561523)"/>
</clipPath>
</defs>
</svg>
