<svg width="32" height="30" viewBox="0 0 32 30" fill="none" xmlns="http://www.w3.org/2000/svg">
<path d="M23.6719 -0.00561523H8.20312C3.93155 -0.00561523 0.46875 3.35225 0.46875 7.49438V22.4944C0.46875 26.6365 3.93155 29.9944 8.20312 29.9944H23.6719C27.9435 29.9944 31.4062 26.6365 31.4062 22.4944V7.49438C31.4062 3.35225 27.9435 -0.00561523 23.6719 -0.00561523Z" stroke="white" stroke-width="2" stroke-linecap="round" stroke-linejoin="round"/>
<path d="M24.4453 6.74438H24.4608M22.125 14.0494C22.3159 15.2978 22.096 16.5727 21.4966 17.6929C20.8972 18.8131 19.9487 19.7215 18.7862 20.2889C17.6237 20.8563 16.3063 21.0538 15.0214 20.8533C13.7365 20.6528 12.5494 20.0645 11.6292 19.1721C10.7089 18.2797 10.1022 17.1287 9.89548 15.8827C9.68872 14.6367 9.89239 13.3592 10.4775 12.2319C11.0626 11.1047 11.9994 10.185 13.1546 9.60375C14.3098 9.0225 15.6246 8.80927 16.912 8.99438C18.2252 9.18321 19.4409 9.77658 20.3796 10.6868C21.3183 11.5971 21.9302 12.776 22.125 14.0494Z" stroke="white" stroke-width="2" stroke-linecap="round" stroke-linejoin="round"/>
</svg>
