<svg width="38" height="36" viewBox="0 0 38 36" fill="none" xmlns="http://www.w3.org/2000/svg">
<path d="M11.1072 24.1659C9.21368 25.6081 7.0403 26.6663 4.71642 27.2773C4.46045 27.3674 4.2393 27.5317 4.08301 27.748C3.92672 27.9642 3.84288 28.2219 3.84288 28.4859C3.84288 28.75 3.92672 29.0076 4.08301 29.2238C4.2393 29.4401 4.46045 29.6044 4.71642 29.6945C23.0668 36.9973 34.7346 25.7088 32.9579 13.1859L35.9279 7.22019H32.4806C28.1847 2.10305 16.782 2.36019 18.6648 13.263C18.6648 13.263 12.5657 14.3173 4.76945 6.88591C4.58911 6.71325 4.36152 6.59433 4.11363 6.54323C3.86574 6.49213 3.60795 6.51099 3.37077 6.59757C3.13359 6.68416 2.92698 6.83484 2.77539 7.03177C2.62379 7.22871 2.53358 7.46365 2.51543 7.70876C1.69108 10.9947 2.10362 14.458 3.67878 17.4751C5.25393 20.4923 7.8882 22.8649 11.1072 24.1659Z" stroke="white" stroke-width="2" stroke-linecap="round" stroke-linejoin="round"/>
</svg>
